solid gloveCase
facet normal -3.633977425963783e-17 5.1464388306499625e-15 -1.0
  outer loop
    vertex 78.73416788287915 -51.31686974895779 5.287437154777308e-14
    vertex 83.13416788287915 -54.31686974895783 1.0645373471618312e-13
    vertex 78.73416788287915 -61.31686974895769 0.0
  endloop
endfacet
facet normal -3.633977425963783e-17 5.1464388306499625e-15 -1.0
  outer loop
    vertex 83.13416788287915 -54.31686974895783 1.0645373471618312e-13
    vertex 78.73416788287915 -51.31686974895779 5.287437154777308e-14
    vertex 117.53416788287917 -51.31686974895779 5.005440506522518e-14
  endloop
endfacet
facet normal -3.633977425963783e-17 5.1464388306499625e-15 -1.0
  outer loop
    vertex 83.13416788287915 -54.31686974895783 1.0645373471618312e-13
    vertex 117.53416788287917 -51.31686974895779 5.005440506522518e-14
    vertex 113.13416788287918 -54.31686974895783 1.0645373471618312e-13
  endloop
endfacet
facet normal -3.633977425963783e-17 5.1464388306499625e-15 -1.0
  outer loop
    vertex 113.13416788287918 -54.31686974895783 1.0645373471618312e-13
    vertex 117.53416788287917 -51.31686974895779 5.005440506522518e-14
    vertex 113.13416788287918 -58.31686974895787 1.346533995416621e-13
  endloop
endfacet
facet normal -3.633977425963783e-17 5.1464388306499625e-15 -1.0
  outer loop
    vertex 78.73416788287915 -61.31686974895769 0.0
    vertex 83.13416788287915 -58.31686974895787 1.346533995416621e-13
    vertex 117.53416788287917 -61.31686974895769 0.0
  endloop
endfacet
facet normal -3.633977425963783e-17 5.1464388306499625e-15 -1.0
  outer loop
    vertex 83.13416788287915 -58.31686974895787 1.346533995416621e-13
    vertex 78.73416788287915 -61.31686974895769 0.0
    vertex 83.13416788287915 -54.31686974895783 1.0645373471618312e-13
  endloop
endfacet
facet normal -3.633977425963783e-17 5.1464388306499625e-15 -1.0
  outer loop
    vertex 117.53416788287917 -61.31686974895769 0.0
    vertex 83.13416788287915 -58.31686974895787 1.346533995416621e-13
    vertex 113.13416788287918 -58.31686974895787 1.346533995416621e-13
  endloop
endfacet
facet normal -3.633977425963783e-17 5.1464388306499625e-15 -1.0
  outer loop
    vertex 117.53416788287917 -61.31686974895769 0.0
    vertex 113.13416788287918 -58.31686974895787 1.346533995416621e-13
    vertex 117.53416788287917 -51.31686974895779 5.005440506522518e-14
  endloop
endfacet
facet normal -1.0 0.0 0.0
  outer loop
    vertex 113.13416788287918 -54.31686974895783 1.0000000000001064
    vertex 113.13416788287918 -58.31686974895787 1.346533995416621e-13
    vertex 113.13416788287918 -58.31686974895787 1.0000000000001346
  endloop
endfacet
facet normal -1.0 0.0 0.0
  outer loop
    vertex 113.13416788287918 -58.31686974895787 1.346533995416621e-13
    vertex 113.13416788287918 -54.31686974895783 1.0000000000001064
    vertex 113.13416788287918 -54.31686974895783 1.0645373471618312e-13
  endloop
endfacet
facet normal 0.0 1.0 0.0
  outer loop
    vertex 78.73416788287915 -51.31686974895779 5.287437154777308e-14
    vertex 117.53416788287917 -51.31686974895779 1.00000000000005
    vertex 117.53416788287917 -51.31686974895779 5.005440506522518e-14
  endloop
endfacet
facet normal 0.0 1.0 0.0
  outer loop
    vertex 117.53416788287917 -51.31686974895779 1.00000000000005
    vertex 78.73416788287915 -51.31686974895779 5.287437154777308e-14
    vertex 78.73416788287915 -51.31686974895779 1.0000000000000528
  endloop
endfacet
facet normal 3.633977425963783e-17 -5.1464388306499625e-15 1.0
  outer loop
    vertex 78.73416788287915 -61.31686974895769 0.9999999999999999
    vertex 83.13416788287915 -58.31686974895787 1.0000000000001346
    vertex 78.73416788287915 -51.31686974895779 1.0000000000000528
  endloop
endfacet
facet normal 3.633977425963783e-17 -5.1464388306499625e-15 1.0
  outer loop
    vertex 83.13416788287915 -58.31686974895787 1.0000000000001346
    vertex 78.73416788287915 -61.31686974895769 0.9999999999999999
    vertex 117.53416788287917 -61.31686974895769 0.9999999999999999
  endloop
endfacet
facet normal 3.633977425963783e-17 -5.1464388306499625e-15 1.0
  outer loop
    vertex 83.13416788287915 -58.31686974895787 1.0000000000001346
    vertex 117.53416788287917 -61.31686974895769 0.9999999999999999
    vertex 113.13416788287918 -58.31686974895787 1.0000000000001346
  endloop
endfacet
facet normal 3.633977425963783e-17 -5.1464388306499625e-15 1.0
  outer loop
    vertex 113.13416788287918 -58.31686974895787 1.0000000000001346
    vertex 117.53416788287917 -61.31686974895769 0.9999999999999999
    vertex 113.13416788287918 -54.31686974895783 1.0000000000001064
  endloop
endfacet
facet normal 3.633977425963783e-17 -5.1464388306499625e-15 1.0
  outer loop
    vertex 78.73416788287915 -51.31686974895779 1.0000000000000528
    vertex 83.13416788287915 -54.31686974895783 1.0000000000001064
    vertex 117.53416788287917 -51.31686974895779 1.00000000000005
  endloop
endfacet
facet normal 3.633977425963783e-17 -5.1464388306499625e-15 1.0
  outer loop
    vertex 83.13416788287915 -54.31686974895783 1.0000000000001064
    vertex 78.73416788287915 -51.31686974895779 1.0000000000000528
    vertex 83.13416788287915 -58.31686974895787 1.0000000000001346
  endloop
endfacet
facet normal 3.633977425963783e-17 -5.1464388306499625e-15 1.0
  outer loop
    vertex 117.53416788287917 -51.31686974895779 1.00000000000005
    vertex 83.13416788287915 -54.31686974895783 1.0000000000001064
    vertex 113.13416788287918 -54.31686974895783 1.0000000000001064
  endloop
endfacet
facet normal 3.633977425963783e-17 -5.1464388306499625e-15 1.0
  outer loop
    vertex 117.53416788287917 -51.31686974895779 1.00000000000005
    vertex 113.13416788287918 -54.31686974895783 1.0000000000001064
    vertex 117.53416788287917 -61.31686974895769 0.9999999999999999
  endloop
endfacet
facet normal 0.0 -1.0 0.0
  outer loop
    vertex 113.13416788287918 -54.31686974895783 1.0000000000001064
    vertex 83.13416788287915 -54.31686974895783 1.0645373471618312e-13
    vertex 113.13416788287918 -54.31686974895783 1.0645373471618312e-13
  endloop
endfacet
facet normal 0.0 -1.0 0.0
  outer loop
    vertex 83.13416788287915 -54.31686974895783 1.0645373471618312e-13
    vertex 113.13416788287918 -54.31686974895783 1.0000000000001064
    vertex 83.13416788287915 -54.31686974895783 1.0000000000001064
  endloop
endfacet
facet normal 1.0 0.0 0.0
  outer loop
    vertex 117.53416788287917 -51.31686974895779 5.005440506522518e-14
    vertex 117.53416788287917 -61.31686974895769 0.9999999999999999
    vertex 117.53416788287917 -61.31686974895769 0.0
  endloop
endfacet
facet normal 1.0 0.0 0.0
  outer loop
    vertex 117.53416788287917 -61.31686974895769 0.9999999999999999
    vertex 117.53416788287917 -51.31686974895779 5.005440506522518e-14
    vertex 117.53416788287917 -51.31686974895779 1.00000000000005
  endloop
endfacet
facet normal -1.0 0.0 0.0
  outer loop
    vertex 78.73416788287915 -51.31686974895779 1.0000000000000528
    vertex 78.73416788287915 -61.31686974895769 0.0
    vertex 78.73416788287915 -61.31686974895769 0.9999999999999999
  endloop
endfacet
facet normal -1.0 0.0 0.0
  outer loop
    vertex 78.73416788287915 -61.31686974895769 0.0
    vertex 78.73416788287915 -51.31686974895779 1.0000000000000528
    vertex 78.73416788287915 -51.31686974895779 5.287437154777308e-14
  endloop
endfacet
facet normal 0.0 1.0 0.0
  outer loop
    vertex 83.13416788287915 -58.31686974895787 1.0000000000001346
    vertex 113.13416788287918 -58.31686974895787 1.346533995416621e-13
    vertex 83.13416788287915 -58.31686974895787 1.346533995416621e-13
  endloop
endfacet
facet normal 0.0 1.0 0.0
  outer loop
    vertex 113.13416788287918 -58.31686974895787 1.346533995416621e-13
    vertex 83.13416788287915 -58.31686974895787 1.0000000000001346
    vertex 113.13416788287918 -58.31686974895787 1.0000000000001346
  endloop
endfacet
facet normal 0.0 -1.0 0.0
  outer loop
    vertex 117.53416788287917 -61.31686974895769 0.9999999999999999
    vertex 78.73416788287915 -61.31686974895769 0.0
    vertex 117.53416788287917 -61.31686974895769 0.0
  endloop
endfacet
facet normal 0.0 -1.0 0.0
  outer loop
    vertex 78.73416788287915 -61.31686974895769 0.0
    vertex 117.53416788287917 -61.31686974895769 0.9999999999999999
    vertex 78.73416788287915 -61.31686974895769 0.9999999999999999
  endloop
endfacet
facet normal 1.0 0.0 0.0
  outer loop
    vertex 83.13416788287915 -54.31686974895783 1.0645373471618312e-13
    vertex 83.13416788287915 -58.31686974895787 1.0000000000001346
    vertex 83.13416788287915 -58.31686974895787 1.346533995416621e-13
  endloop
endfacet
facet normal 1.0 0.0 0.0
  outer loop
    vertex 83.13416788287915 -58.31686974895787 1.0000000000001346
    vertex 83.13416788287915 -54.31686974895783 1.0645373471618312e-13
    vertex 83.13416788287915 -54.31686974895783 1.0000000000001064
  endloop
endfacet
endsolid gloveCase
