solid gloveCase
facet normal 0.0 0.0 1.0
  outer loop
    vertex 125.25283824292633 -26.77126733284111 -1.4099832412739487e-15
    vertex 86.45283824292633 43.22873266715889 0.0
    vertex 86.45283824292633 -26.77126733284111 0.0
  endloop
endfacet
facet normal 0.0 0.0 1.0
  outer loop
    vertex 86.45283824292633 43.22873266715889 0.0
    vertex 125.25283824292633 -26.77126733284111 -1.4099832412739487e-15
    vertex 125.25283824292633 43.22873266715889 -1.4099832412739487e-15
  endloop
endfacet
facet normal 0.0 0.5000000000000007 0.8660254037844384
  outer loop
    vertex 86.45283824292633 43.72873266715887 -0.13397459621555793
    vertex 90.85283824292634 46.32680887851219 -1.6339745962155607
    vertex 86.45283824292633 52.388986705003255 -5.133974596215565
  endloop
endfacet
facet normal 0.0 0.5000000000000007 0.8660254037844384
  outer loop
    vertex 90.85283824292634 46.32680887851219 -1.6339745962155607
    vertex 86.45283824292633 43.72873266715887 -0.13397459621555793
    vertex 125.25283824292627 43.72873266715887 -0.13397459621555935
  endloop
endfacet
facet normal 0.0 0.5000000000000007 0.8660254037844384
  outer loop
    vertex 90.85283824292634 46.32680887851219 -1.6339745962155607
    vertex 125.25283824292627 43.72873266715887 -0.13397459621555935
    vertex 120.85283824292627 46.32680887851219 -1.6339745962155607
  endloop
endfacet
facet normal 0.0 0.5000000000000007 0.8660254037844384
  outer loop
    vertex 120.85283824292627 46.32680887851219 -1.6339745962155607
    vertex 125.25283824292627 43.72873266715887 -0.13397459621555935
    vertex 120.85283824292627 49.79091049364995 -3.6339745962155683
  endloop
endfacet
facet normal 0.0 0.5000000000000007 0.8660254037844384
  outer loop
    vertex 86.45283824292633 52.388986705003255 -5.133974596215565
    vertex 90.85283824292634 49.79091049364995 -3.6339745962155683
    vertex 125.25283824292627 52.388986705003255 -5.133974596215567
  endloop
endfacet
facet normal 0.0 0.5000000000000007 0.8660254037844384
  outer loop
    vertex 90.85283824292634 49.79091049364995 -3.6339745962155683
    vertex 86.45283824292633 52.388986705003255 -5.133974596215565
    vertex 90.85283824292634 46.32680887851219 -1.6339745962155607
  endloop
endfacet
facet normal 0.0 0.5000000000000007 0.8660254037844384
  outer loop
    vertex 125.25283824292627 52.388986705003255 -5.133974596215567
    vertex 90.85283824292634 49.79091049364995 -3.6339745962155683
    vertex 120.85283824292627 49.79091049364995 -3.6339745962155683
  endloop
endfacet
facet normal 0.0 0.5000000000000007 0.8660254037844384
  outer loop
    vertex 125.25283824292627 52.388986705003255 -5.133974596215567
    vertex 120.85283824292627 49.79091049364995 -3.6339745962155683
    vertex 125.25283824292627 43.72873266715887 -0.13397459621555935
  endloop
endfacet
facet normal -6.121614853285097e-32 -0.8660254037844354 0.5000000000000058
  outer loop
    vertex 120.85283824292627 49.79091049364995 -3.6339745962155683
    vertex 90.85283824292634 48.790910493649946 -5.366025403784439
    vertex 120.85283824292627 48.790910493649946 -5.366025403784439
  endloop
endfacet
facet normal -6.121614853285097e-32 -0.8660254037844354 0.5000000000000058
  outer loop
    vertex 90.85283824292634 48.790910493649946 -5.366025403784439
    vertex 120.85283824292627 49.79091049364995 -3.6339745962155683
    vertex 90.85283824292634 49.79091049364995 -3.6339745962155683
  endloop
endfacet
facet normal 2.2089474896371182e-33 0.8660254037844377 -0.5000000000000019
  outer loop
    vertex 90.85283824292634 46.32680887851219 -1.6339745962155607
    vertex 120.85283824292627 45.32680887851219 -3.3660254037844326
    vertex 90.85283824292634 45.32680887851219 -3.3660254037844326
  endloop
endfacet
facet normal 2.2089474896371182e-33 0.8660254037844377 -0.5000000000000019
  outer loop
    vertex 120.85283824292627 45.32680887851219 -3.3660254037844326
    vertex 90.85283824292634 46.32680887851219 -1.6339745962155607
    vertex 120.85283824292627 46.32680887851219 -1.6339745962155607
  endloop
endfacet
facet normal 0.0 0.8660254037844407 -0.4999999999999966
  outer loop
    vertex 86.45283824292633 51.388986705003255 -6.866025403784448
    vertex 125.25283824292627 52.388986705003255 -5.133974596215567
    vertex 125.25283824292627 51.388986705003255 -6.866025403784449
  endloop
endfacet
facet normal 0.0 0.8660254037844407 -0.4999999999999966
  outer loop
    vertex 125.25283824292627 52.388986705003255 -5.133974596215567
    vertex 86.45283824292633 51.388986705003255 -6.866025403784448
    vertex 86.45283824292633 52.388986705003255 -5.133974596215565
  endloop
endfacet
facet normal 1.0 0.0 0.0
  outer loop
    vertex 90.85283824292634 48.790910493649946 -5.366025403784439
    vertex 90.85283824292634 46.32680887851219 -1.6339745962155607
    vertex 90.85283824292634 45.32680887851219 -3.3660254037844326
  endloop
endfacet
facet normal 1.0 0.0 0.0
  outer loop
    vertex 90.85283824292634 46.32680887851219 -1.6339745962155607
    vertex 90.85283824292634 48.790910493649946 -5.366025403784439
    vertex 90.85283824292634 49.79091049364995 -3.6339745962155683
  endloop
endfacet
facet normal -1.0 0.0 0.0
  outer loop
    vertex 120.85283824292627 46.32680887851219 -1.6339745962155607
    vertex 120.85283824292627 48.790910493649946 -5.366025403784439
    vertex 120.85283824292627 45.32680887851219 -3.3660254037844326
  endloop
endfacet
facet normal -1.0 0.0 0.0
  outer loop
    vertex 120.85283824292627 48.790910493649946 -5.366025403784439
    vertex 120.85283824292627 46.32680887851219 -1.6339745962155607
    vertex 120.85283824292627 49.79091049364995 -3.6339745962155683
  endloop
endfacet
facet normal 0.0 -0.8660254037844182 -0.5000000000000354
  outer loop
    vertex 120.85283824292634 -29.869343544194514 -1.6339745962155607
    vertex 90.85283824292634 -28.869343544194475 -3.3660254037844366
    vertex 120.85283824292634 -28.869343544194475 -3.3660254037844366
  endloop
endfacet
facet normal 0.0 -0.8660254037844182 -0.5000000000000354
  outer loop
    vertex 90.85283824292634 -28.869343544194475 -3.3660254037844366
    vertex 120.85283824292634 -29.869343544194514 -1.6339745962155607
    vertex 90.85283824292634 -29.869343544194514 -1.6339745962155607
  endloop
endfacet
facet normal 0.0 0.8660254037844182 0.5000000000000354
  outer loop
    vertex 90.85283824292634 -33.333445159332314 -3.6339745962155683
    vertex 120.85283824292634 -32.33344515933228 -5.366025403784444
    vertex 90.85283824292634 -32.33344515933228 -5.366025403784444
  endloop
endfacet
facet normal 0.0 0.8660254037844182 0.5000000000000354
  outer loop
    vertex 120.85283824292634 -32.33344515933228 -5.366025403784444
    vertex 90.85283824292634 -33.333445159332314 -3.6339745962155683
    vertex 120.85283824292634 -33.333445159332314 -3.6339745962155683
  endloop
endfacet
facet normal -1.0 0.0 0.0
  outer loop
    vertex 120.85283824292634 -29.869343544194514 -1.6339745962155607
    vertex 120.85283824292634 -32.33344515933228 -5.366025403784444
    vertex 120.85283824292634 -33.333445159332314 -3.6339745962155683
  endloop
endfacet
facet normal -1.0 0.0 0.0
  outer loop
    vertex 120.85283824292634 -32.33344515933228 -5.366025403784444
    vertex 120.85283824292634 -29.869343544194514 -1.6339745962155607
    vertex 120.85283824292634 -28.869343544194475 -3.3660254037844366
  endloop
endfacet
facet normal 1.0 0.0 0.0
  outer loop
    vertex 90.85283824292634 -32.33344515933228 -5.366025403784444
    vertex 90.85283824292634 -29.869343544194514 -1.6339745962155607
    vertex 90.85283824292634 -33.333445159332314 -3.6339745962155683
  endloop
endfacet
facet normal 1.0 0.0 0.0
  outer loop
    vertex 90.85283824292634 -29.869343544194514 -1.6339745962155607
    vertex 90.85283824292634 -32.33344515933228 -5.366025403784444
    vertex 90.85283824292634 -28.869343544194475 -3.3660254037844366
  endloop
endfacet
facet normal -4.769263649546893e-33 -0.500000000000004 0.8660254037844364
  outer loop
    vertex 86.45283824292633 -35.931521370685346 -5.1339745962155625
    vertex 90.85283824292634 -33.333445159332314 -3.6339745962155683
    vertex 86.45283824292633 -27.271267332841045 -0.13397459621555793
  endloop
endfacet
facet normal -4.769263649546893e-33 -0.500000000000004 0.8660254037844364
  outer loop
    vertex 90.85283824292634 -33.333445159332314 -3.6339745962155683
    vertex 86.45283824292633 -35.931521370685346 -5.1339745962155625
    vertex 125.25283824292633 -35.931521370685346 -5.133974596215564
  endloop
endfacet
facet normal -4.769263649546893e-33 -0.500000000000004 0.8660254037844364
  outer loop
    vertex 90.85283824292634 -33.333445159332314 -3.6339745962155683
    vertex 125.25283824292633 -35.931521370685346 -5.133974596215564
    vertex 120.85283824292634 -33.333445159332314 -3.6339745962155683
  endloop
endfacet
facet normal -4.769263649546893e-33 -0.500000000000004 0.8660254037844364
  outer loop
    vertex 120.85283824292634 -33.333445159332314 -3.6339745962155683
    vertex 125.25283824292633 -35.931521370685346 -5.133974596215564
    vertex 120.85283824292634 -29.869343544194514 -1.6339745962155607
  endloop
endfacet
facet normal -4.769263649546893e-33 -0.500000000000004 0.8660254037844364
  outer loop
    vertex 86.45283824292633 -27.271267332841045 -0.13397459621555793
    vertex 90.85283824292634 -29.869343544194514 -1.6339745962155607
    vertex 125.25283824292633 -27.271267332841045 -0.13397459621555935
  endloop
endfacet
facet normal -4.769263649546893e-33 -0.500000000000004 0.8660254037844364
  outer loop
    vertex 90.85283824292634 -29.869343544194514 -1.6339745962155607
    vertex 86.45283824292633 -27.271267332841045 -0.13397459621555793
    vertex 90.85283824292634 -33.333445159332314 -3.6339745962155683
  endloop
endfacet
facet normal -4.769263649546893e-33 -0.500000000000004 0.8660254037844364
  outer loop
    vertex 125.25283824292633 -27.271267332841045 -0.13397459621555935
    vertex 90.85283824292634 -29.869343544194514 -1.6339745962155607
    vertex 120.85283824292634 -29.869343544194514 -1.6339745962155607
  endloop
endfacet
facet normal -4.769263649546893e-33 -0.500000000000004 0.8660254037844364
  outer loop
    vertex 125.25283824292633 -27.271267332841045 -0.13397459621555935
    vertex 120.85283824292634 -29.869343544194514 -1.6339745962155607
    vertex 125.25283824292633 -35.931521370685346 -5.133974596215564
  endloop
endfacet
facet normal 0.0 -0.8660254037845774 -0.4999999999997598
  outer loop
    vertex 125.25283824292633 -35.931521370685346 -5.133974596215564
    vertex 86.45283824292633 -34.93152137068567 -6.866025403784449
    vertex 125.25283824292633 -34.93152137068567 -6.866025403784451
  endloop
endfacet
facet normal 0.0 -0.8660254037845774 -0.4999999999997598
  outer loop
    vertex 86.45283824292633 -34.93152137068567 -6.866025403784449
    vertex 125.25283824292633 -35.931521370685346 -5.133974596215564
    vertex 86.45283824292633 -35.931521370685346 -5.1339745962155625
  endloop
endfacet
facet normal 1.4402292647804057e-20 0.2588190451025205 0.9659258262890684
  outer loop
    vertex 125.25283824292633 43.22873266715889 -1.4099832412739487e-15
    vertex 86.45283824292633 43.72873266715887 -0.13397459621555793
    vertex 86.45283824292633 43.22873266715889 0.0
  endloop
endfacet
facet normal 1.4402292647804057e-20 0.2588190451025205 0.9659258262890684
  outer loop
    vertex 86.45283824292633 43.72873266715887 -0.13397459621555793
    vertex 125.25283824292633 43.22873266715889 -1.4099832412739487e-15
    vertex 125.25283824292627 43.72873266715887 -0.13397459621555935
  endloop
endfacet
facet normal 2.280535897859654e-32 -0.258819045102545 0.9659258262890618
  outer loop
    vertex 125.25283824292633 -27.271267332841045 -0.13397459621555935
    vertex 86.45283824292633 -26.77126733284111 0.0
    vertex 86.45283824292633 -27.271267332841045 -0.13397459621555793
  endloop
endfacet
facet normal 2.280535897859654e-32 -0.258819045102545 0.9659258262890618
  outer loop
    vertex 86.45283824292633 -26.77126733284111 0.0
    vertex 125.25283824292633 -27.271267332841045 -0.13397459621555935
    vertex 125.25283824292633 -26.77126733284111 -1.4099832412739487e-15
  endloop
endfacet
facet normal 4.882583407998158e-32 0.4999999999999933 -0.8660254037844427
  outer loop
    vertex 86.45283824292633 -26.271267332841113 -1.8660254037844424
    vertex 90.85283824292634 -28.869343544194475 -3.3660254037844366
    vertex 86.45283824292633 -34.93152137068567 -6.866025403784449
  endloop
endfacet
facet normal 4.882583407998158e-32 0.4999999999999933 -0.8660254037844427
  outer loop
    vertex 90.85283824292634 -28.869343544194475 -3.3660254037844366
    vertex 86.45283824292633 -26.271267332841113 -1.8660254037844424
    vertex 125.25283824292633 -26.271267332841113 -1.8660254037844437
  endloop
endfacet
facet normal 4.882583407998158e-32 0.4999999999999933 -0.8660254037844427
  outer loop
    vertex 90.85283824292634 -28.869343544194475 -3.3660254037844366
    vertex 125.25283824292633 -26.271267332841113 -1.8660254037844437
    vertex 120.85283824292634 -28.869343544194475 -3.3660254037844366
  endloop
endfacet
facet normal 4.882583407998158e-32 0.4999999999999933 -0.8660254037844427
  outer loop
    vertex 120.85283824292634 -28.869343544194475 -3.3660254037844366
    vertex 125.25283824292633 -26.271267332841113 -1.8660254037844437
    vertex 120.85283824292634 -32.33344515933228 -5.366025403784444
  endloop
endfacet
facet normal 4.882583407998158e-32 0.4999999999999933 -0.8660254037844427
  outer loop
    vertex 86.45283824292633 -34.93152137068567 -6.866025403784449
    vertex 90.85283824292634 -32.33344515933228 -5.366025403784444
    vertex 125.25283824292633 -34.93152137068567 -6.866025403784451
  endloop
endfacet
facet normal 4.882583407998158e-32 0.4999999999999933 -0.8660254037844427
  outer loop
    vertex 90.85283824292634 -32.33344515933228 -5.366025403784444
    vertex 86.45283824292633 -34.93152137068567 -6.866025403784449
    vertex 90.85283824292634 -28.869343544194475 -3.3660254037844366
  endloop
endfacet
facet normal 4.882583407998158e-32 0.4999999999999933 -0.8660254037844427
  outer loop
    vertex 125.25283824292633 -34.93152137068567 -6.866025403784451
    vertex 90.85283824292634 -32.33344515933228 -5.366025403784444
    vertex 120.85283824292634 -32.33344515933228 -5.366025403784444
  endloop
endfacet
facet normal 4.882583407998158e-32 0.4999999999999933 -0.8660254037844427
  outer loop
    vertex 125.25283824292633 -34.93152137068567 -6.866025403784451
    vertex 120.85283824292634 -32.33344515933228 -5.366025403784444
    vertex 125.25283824292633 -26.271267332841113 -1.8660254037844437
  endloop
endfacet
facet normal -2.8438570902750293e-17 -0.5000000000000016 -0.8660254037844377
  outer loop
    vertex 86.45283824292633 51.388986705003255 -6.866025403784448
    vertex 90.85283824292634 48.790910493649946 -5.366025403784439
    vertex 86.45283824292633 42.72873266715889 -1.8660254037844382
  endloop
endfacet
facet normal -2.8438570902750293e-17 -0.5000000000000016 -0.8660254037844377
  outer loop
    vertex 90.85283824292634 48.790910493649946 -5.366025403784439
    vertex 86.45283824292633 51.388986705003255 -6.866025403784448
    vertex 125.25283824292627 51.388986705003255 -6.866025403784449
  endloop
endfacet
facet normal -2.8438570902750293e-17 -0.5000000000000016 -0.8660254037844377
  outer loop
    vertex 90.85283824292634 48.790910493649946 -5.366025403784439
    vertex 125.25283824292627 51.388986705003255 -6.866025403784449
    vertex 120.85283824292627 48.790910493649946 -5.366025403784439
  endloop
endfacet
facet normal -2.8438570902750293e-17 -0.5000000000000016 -0.8660254037844377
  outer loop
    vertex 120.85283824292627 48.790910493649946 -5.366025403784439
    vertex 125.25283824292627 51.388986705003255 -6.866025403784449
    vertex 120.85283824292627 45.32680887851219 -3.3660254037844326
  endloop
endfacet
facet normal -2.8438570902750293e-17 -0.5000000000000016 -0.8660254037844377
  outer loop
    vertex 120.85283824292627 45.32680887851219 -3.3660254037844326
    vertex 125.25283824292627 51.388986705003255 -6.866025403784449
    vertex 124.85283824292634 42.72873266715889 -1.8660254037844382
  endloop
endfacet
facet normal -2.8438570902750293e-17 -0.5000000000000016 -0.8660254037844377
  outer loop
    vertex 124.85283824292634 42.72873266715889 -1.8660254037844382
    vertex 125.25283824292627 51.388986705003255 -6.866025403784449
    vertex 125.25283824292633 42.72873266715889 -1.8660254037844395
  endloop
endfacet
facet normal -2.8438570902750293e-17 -0.5000000000000016 -0.8660254037844377
  outer loop
    vertex 86.45283824292633 42.72873266715889 -1.8660254037844382
    vertex 90.85283824292634 45.32680887851219 -3.3660254037844326
    vertex 124.85283824292634 42.72873266715889 -1.8660254037844382
  endloop
endfacet
facet normal -2.8438570902750293e-17 -0.5000000000000016 -0.8660254037844377
  outer loop
    vertex 90.85283824292634 45.32680887851219 -3.3660254037844326
    vertex 86.45283824292633 42.72873266715889 -1.8660254037844382
    vertex 90.85283824292634 48.790910493649946 -5.366025403784439
  endloop
endfacet
facet normal -2.8438570902750293e-17 -0.5000000000000016 -0.8660254037844377
  outer loop
    vertex 124.85283824292634 42.72873266715889 -1.8660254037844382
    vertex 90.85283824292634 45.32680887851219 -3.3660254037844326
    vertex 120.85283824292627 45.32680887851219 -3.3660254037844326
  endloop
endfacet
facet normal -2.6492699521847257e-17 6.711547605368716e-17 -1.0
  outer loop
    vertex 124.85283824292634 42.72873266715889 -1.8660254037844382
    vertex 86.45283824292633 -26.271267332841113 -1.8660254037844424
    vertex 86.45283824292633 42.72873266715889 -1.8660254037844382
  endloop
endfacet
facet normal -2.6492699521847257e-17 6.711547605368716e-17 -1.0
  outer loop
    vertex 86.45283824292633 -26.271267332841113 -1.8660254037844424
    vertex 124.85283824292634 42.72873266715889 -1.8660254037844382
    vertex 125.25283824292633 -26.271267332841113 -1.8660254037844437
  endloop
endfacet
facet normal -2.6492699521847257e-17 6.711547605368716e-17 -1.0
  outer loop
    vertex 125.25283824292633 -26.271267332841113 -1.8660254037844437
    vertex 124.85283824292634 42.72873266715889 -1.8660254037844382
    vertex 125.25283824292633 42.72873266715889 -1.8660254037844395
  endloop
endfacet
facet normal -1.0 0.0 0.0
  outer loop
    vertex 86.45283824292633 -27.271267332841045 -0.13397459621555793
    vertex 86.45283824292633 -34.93152137068567 -6.866025403784449
    vertex 86.45283824292633 -35.931521370685346 -5.1339745962155625
  endloop
endfacet
facet normal -1.0 0.0 0.0
  outer loop
    vertex 86.45283824292633 -34.93152137068567 -6.866025403784449
    vertex 86.45283824292633 -27.271267332841045 -0.13397459621555793
    vertex 86.45283824292633 -26.271267332841113 -1.8660254037844424
  endloop
endfacet
facet normal -1.0 0.0 0.0
  outer loop
    vertex 86.45283824292633 -26.271267332841113 -1.8660254037844424
    vertex 86.45283824292633 -27.271267332841045 -0.13397459621555793
    vertex 86.45283824292633 -26.77126733284111 0.0
  endloop
endfacet
facet normal -1.0 0.0 0.0
  outer loop
    vertex 86.45283824292633 -26.271267332841113 -1.8660254037844424
    vertex 86.45283824292633 -26.77126733284111 0.0
    vertex 86.45283824292633 43.22873266715889 0.0
  endloop
endfacet
facet normal -1.0 0.0 0.0
  outer loop
    vertex 86.45283824292633 -26.271267332841113 -1.8660254037844424
    vertex 86.45283824292633 43.22873266715889 0.0
    vertex 86.45283824292633 42.72873266715889 -1.8660254037844382
  endloop
endfacet
facet normal -1.0 0.0 0.0
  outer loop
    vertex 86.45283824292633 42.72873266715889 -1.8660254037844382
    vertex 86.45283824292633 43.22873266715889 0.0
    vertex 86.45283824292633 51.388986705003255 -6.866025403784448
  endloop
endfacet
facet normal -1.0 0.0 0.0
  outer loop
    vertex 86.45283824292633 51.388986705003255 -6.866025403784448
    vertex 86.45283824292633 43.22873266715889 0.0
    vertex 86.45283824292633 43.72873266715887 -0.13397459621555793
  endloop
endfacet
facet normal -1.0 0.0 0.0
  outer loop
    vertex 86.45283824292633 51.388986705003255 -6.866025403784448
    vertex 86.45283824292633 43.72873266715887 -0.13397459621555793
    vertex 86.45283824292633 52.388986705003255 -5.133974596215565
  endloop
endfacet
facet normal 1.0 5.550153376461397e-16 -3.342756573972443e-15
  outer loop
    vertex 125.25283824292633 -34.93152137068567 -6.866025403784451
    vertex 125.25283824292633 -27.271267332841045 -0.13397459621555935
    vertex 125.25283824292633 -35.931521370685346 -5.133974596215564
  endloop
endfacet
facet normal 1.0 5.550153376461397e-16 -3.342756573972443e-15
  outer loop
    vertex 125.25283824292633 -27.271267332841045 -0.13397459621555935
    vertex 125.25283824292633 -34.93152137068567 -6.866025403784451
    vertex 125.25283824292633 -26.271267332841113 -1.8660254037844437
  endloop
endfacet
facet normal 1.0 5.550153376461397e-16 -3.342756573972443e-15
  outer loop
    vertex 125.25283824292633 -27.271267332841045 -0.13397459621555935
    vertex 125.25283824292633 -26.271267332841113 -1.8660254037844437
    vertex 125.25283824292633 -26.77126733284111 -1.4099832412739487e-15
  endloop
endfacet
facet normal 1.0 5.550153376461397e-16 -3.342756573972443e-15
  outer loop
    vertex 125.25283824292633 -26.77126733284111 -1.4099832412739487e-15
    vertex 125.25283824292633 -26.271267332841113 -1.8660254037844437
    vertex 125.25283824292633 43.22873266715889 -1.4099832412739487e-15
  endloop
endfacet
facet normal 1.0 5.550153376461397e-16 -3.342756573972443e-15
  outer loop
    vertex 125.25283824292633 43.22873266715889 -1.4099832412739487e-15
    vertex 125.25283824292633 -26.271267332841113 -1.8660254037844437
    vertex 125.25283824292633 42.72873266715889 -1.8660254037844395
  endloop
endfacet
facet normal 1.0 5.550153376461397e-16 -3.342756573972443e-15
  outer loop
    vertex 125.25283824292633 43.22873266715889 -1.4099832412739487e-15
    vertex 125.25283824292633 42.72873266715889 -1.8660254037844395
    vertex 125.25283824292627 51.388986705003255 -6.866025403784449
  endloop
endfacet
facet normal 1.0 5.550153376461397e-16 -3.342756573972443e-15
  outer loop
    vertex 125.25283824292633 43.22873266715889 -1.4099832412739487e-15
    vertex 125.25283824292627 51.388986705003255 -6.866025403784449
    vertex 125.25283824292627 43.72873266715887 -0.13397459621555935
  endloop
endfacet
facet normal 1.0 5.550153376461397e-16 -3.342756573972443e-15
  outer loop
    vertex 125.25283824292627 43.72873266715887 -0.13397459621555935
    vertex 125.25283824292627 51.388986705003255 -6.866025403784449
    vertex 125.25283824292627 52.388986705003255 -5.133974596215567
  endloop
endfacet
endsolid gloveCase
