solid plugNut
facet normal 0.9224812637341454 -0.38210425047375507 0.05499690745254544
  outer loop
    vertex -0.2102034631220857 2.6452687549741247 5.639932965095795e-15
    vertex -0.7130799381442507 1.9493716038124438 3.6000000000000063
    vertex -0.5198947728864374 1.89760779479194 5.639932965095795e-15
  endloop
endfacet
facet normal 0.9224812637341454 -0.38210425047375507 0.05499690745254544
  outer loop
    vertex -0.7130799381442507 1.9493716038124438 3.6000000000000063
    vertex -0.2102034631220857 2.6452687549741247 5.639932965095795e-15
    vertex -0.38340854387897305 2.745268754974125 3.6000000000000063
  endloop
endfacet
facet normal 0.9224812637341456 0.382104250473755 0.05499690745254571
  outer loop
    vertex -0.21020346312208607 -0.45473124502587436 5.639932965095795e-15
    vertex -0.7130799381442522 0.24116590613580752 3.6000000000000063
    vertex -0.3834085438789741 -0.5547312450258745 3.6000000000000063
  endloop
endfacet
facet normal 0.9224812637341456 0.382104250473755 0.05499690745254571
  outer loop
    vertex -0.7130799381442522 0.24116590613580752 3.6000000000000063
    vertex -0.21020346312208607 -0.45473124502587436 5.639932965095795e-15
    vertex -0.5198947728864374 0.2929297151563106 5.639932965095795e-15
  endloop
endfacet
facet normal 0.7921526196713572 0.6078400836720645 0.05499690745254568
  outer loop
    vertex 0.28244426693137625 -1.096762266704172 5.639932965095795e-15
    vertex -0.3834085438789741 -0.5547312450258745 3.6000000000000063
    vertex 0.1410229106940661 -1.2381836229414818 3.6000000000000063
  endloop
endfacet
facet normal 0.7921526196713572 0.6078400836720645 0.05499690745254568
  outer loop
    vertex -0.3834085438789741 -0.5547312450258745 3.6000000000000063
    vertex 0.28244426693137625 -1.096762266704172 5.639932965095795e-15
    vertex -0.21020346312208607 -0.45473124502587436 5.639932965095795e-15
  endloop
endfacet
facet normal 0.3821042504737555 0.9224812637341454 0.054996907452545554
  outer loop
    vertex 0.8244752886096733 -1.7626150775145228 3.6000000000000063
    vertex 1.6721362487918574 -1.8991013065219868 5.639932965095795e-15
    vertex 0.9244752886096721 -1.5894099967576345 5.639932965095795e-15
  endloop
endfacet
facet normal 0.3821042504737555 0.9224812637341454 0.054996907452545554
  outer loop
    vertex 1.6721362487918574 -1.8991013065219868 5.639932965095795e-15
    vertex 0.8244752886096733 -1.7626150775145228 3.6000000000000063
    vertex 1.6203724397713548 -2.092286471779801 3.6000000000000063
  endloop
endfacet
facet normal 0.6078400836720654 0.7921526196713566 0.054996907452545596
  outer loop
    vertex 0.1410229106940661 -1.2381836229414818 3.6000000000000063
    vertex 0.9244752886096721 -1.5894099967576345 5.639932965095795e-15
    vertex 0.28244426693137625 -1.096762266704172 5.639932965095795e-15
  endloop
endfacet
facet normal 0.6078400836720654 0.7921526196713566 0.054996907452545596
  outer loop
    vertex 0.9244752886096721 -1.5894099967576345 5.639932965095795e-15
    vertex 0.1410229106940661 -1.2381836229414818 3.6000000000000063
    vertex 0.8244752886096733 -1.7626150775145228 3.6000000000000063
  endloop
endfacet
facet normal 0.9193405100420602 -0.3934628655865821 0.0
  outer loop
    vertex 9.021737200890772 -0.7414025416909161 5.639932965095795e-15
    vertex 8.323279149990682 -2.3733755610511706 0.6000000000000056
    vertex 8.323279149990682 -2.3733755610511706 5.639932965095795e-15
  endloop
endfacet
facet normal 0.9193405100420602 -0.3934628655865821 0.0
  outer loop
    vertex 8.323279149990682 -2.3733755610511706 0.6000000000000056
    vertex 9.021737200890772 -0.7414025416909161 5.639932965095795e-15
    vertex 9.021737200890772 -0.7414025416909161 0.6000000000000056
  endloop
endfacet
facet normal 0.7861790586489702 -0.6179987764889339 0.0
  outer loop
    vertex 8.323279149990682 -2.3733755610511706 5.639932965095795e-15
    vertex 7.226234781542867 -3.7689662024800556 0.6000000000000056
    vertex 7.226234781542867 -3.7689662024800556 5.639932965095795e-15
  endloop
endfacet
facet normal 0.7861790586489702 -0.6179987764889339 0.0
  outer loop
    vertex 7.226234781542867 -3.7689662024800556 0.6000000000000056
    vertex 8.323279149990682 -2.3733755610511706 5.639932965095795e-15
    vertex 8.323279149990682 -2.3733755610511706 0.6000000000000056
  endloop
endfacet
facet normal 0.5994408036312766 -0.8004190920648315 0.0
  outer loop
    vertex 7.226234781542867 -3.7689662024800556 0.6000000000000056
    vertex 5.805365856305502 -4.833067270086782 5.639932965095795e-15
    vertex 7.226234781542867 -3.7689662024800556 5.639932965095795e-15
  endloop
endfacet
facet normal 0.5994408036312766 -0.8004190920648315 0.0
  outer loop
    vertex 5.805365856305502 -4.833067270086782 5.639932965095795e-15
    vertex 7.226234781542867 -3.7689662024800556 0.6000000000000056
    vertex 5.805365856305502 -4.833067270086782 0.6000000000000056
  endloop
endfacet
facet normal 0.3718516484688776 -0.928292169271603 0.0
  outer loop
    vertex 5.805365856305502 -4.833067270086782 0.6000000000000056
    vertex 4.15750224343659 -5.4931620346241115 5.639932965095795e-15
    vertex 5.805365856305502 -4.833067270086782 5.639932965095795e-15
  endloop
endfacet
facet normal 0.3718516484688776 -0.928292169271603 0.0
  outer loop
    vertex 4.15750224343659 -5.4931620346241115 5.639932965095795e-15
    vertex 5.805365856305502 -4.833067270086782 0.6000000000000056
    vertex 4.15750224343659 -5.4931620346241115 0.6000000000000056
  endloop
endfacet
facet normal -1.9355784770460402e-16 -3.265761084345607e-16 -1.0
  outer loop
    vertex -0.856415279086156 7.02360478003503 5.639932965095795e-15
    vertex -0.5198947728864374 1.89760779479194 5.639932965095795e-15
    vertex -0.6255247113903254 1.0952687549741253 5.639932965095795e-15
  endloop
endfacet
facet normal -1.9355784770460402e-16 -3.265761084345607e-16 -1.0
  outer loop
    vertex -0.5198947728864374 1.89760779479194 5.639932965095795e-15
    vertex -0.856415279086156 7.02360478003503 5.639932965095795e-15
    vertex 0.6720786870198072 7.6358829180885 5.639932965095795e-15
  endloop
endfacet
facet normal -1.9355784770460402e-16 -3.265761084345607e-16 -1.0
  outer loop
    vertex -0.5198947728864374 1.89760779479194 5.639932965095795e-15
    vertex 0.6720786870198072 7.6358829180885 5.639932965095795e-15
    vertex -0.2102034631220857 2.6452687549741247 5.639932965095795e-15
  endloop
endfacet
facet normal -1.9355784770460402e-16 -3.265761084345607e-16 -1.0
  outer loop
    vertex -0.2102034631220857 2.6452687549741247 5.639932965095795e-15
    vertex 0.6720786870198072 7.6358829180885 5.639932965095795e-15
    vertex 0.2824442669313773 3.287299776652422 5.639932965095795e-15
  endloop
endfacet
facet normal -1.9355784770460402e-16 -3.265761084345607e-16 -1.0
  outer loop
    vertex 0.2824442669313773 3.287299776652422 5.639932965095795e-15
    vertex 0.6720786870198072 7.6358829180885 5.639932965095795e-15
    vertex 0.9244752886096747 3.7799475067058843 5.639932965095795e-15
  endloop
endfacet
facet normal -1.9355784770460402e-16 -3.265761084345607e-16 -1.0
  outer loop
    vertex 0.9244752886096747 3.7799475067058843 5.639932965095795e-15
    vertex 0.6720786870198072 7.6358829180885 5.639932965095795e-15
    vertex 2.4744752886096735 6.595268754974124 5.639932965095795e-15
  endloop
endfacet
facet normal -1.9355784770460402e-16 -3.265761084345607e-16 -1.0
  outer loop
    vertex 0.9244752886096747 3.7799475067058843 5.639932965095795e-15
    vertex 2.4744752886096735 6.595268754974124 5.639932965095795e-15
    vertex 1.6721362487918596 4.089638816470235 5.639932965095795e-15
  endloop
endfacet
facet normal -1.9355784770460402e-16 -3.265761084345607e-16 -1.0
  outer loop
    vertex 1.6721362487918596 4.089638816470235 5.639932965095795e-15
    vertex 2.4744752886096735 6.595268754974124 5.639932965095795e-15
    vertex 2.4744752886096744 4.195268754974124 5.639932965095795e-15
  endloop
endfacet
facet normal -1.9355784770460402e-16 -3.265761084345607e-16 -1.0
  outer loop
    vertex 2.4744752886096744 4.195268754974124 5.639932965095795e-15
    vertex 2.4744752886096735 6.595268754974124 5.639932965095795e-15
    vertex 7.237615009424089 3.8452687549741205 5.639932965095795e-15
  endloop
endfacet
facet normal -1.9355784770460402e-16 -3.265761084345607e-16 -1.0
  outer loop
    vertex 2.4744752886096744 4.195268754974124 5.639932965095795e-15
    vertex 7.237615009424089 3.8452687549741205 5.639932965095795e-15
    vertex 3.276814328427488 4.089638816470235 5.639932965095795e-15
  endloop
endfacet
facet normal -1.9355784770460402e-16 -3.265761084345607e-16 -1.0
  outer loop
    vertex 3.276814328427488 4.089638816470235 5.639932965095795e-15
    vertex 7.237615009424089 3.8452687549741205 5.639932965095795e-15
    vertex 4.024475288609674 3.7799475067058834 5.639932965095795e-15
  endloop
endfacet
facet normal -1.9355784770460402e-16 -3.265761084345607e-16 -1.0
  outer loop
    vertex 4.024475288609674 3.7799475067058834 5.639932965095795e-15
    vertex 7.237615009424089 3.8452687549741205 5.639932965095795e-15
    vertex 4.6665063102879705 3.2872997766524206 5.639932965095795e-15
  endloop
endfacet
facet normal -1.9355784770460402e-16 -3.265761084345607e-16 -1.0
  outer loop
    vertex 4.6665063102879705 3.2872997766524206 5.639932965095795e-15
    vertex 7.237615009424089 3.8452687549741205 5.639932965095795e-15
    vertex 5.159154040341432 2.6452687549741234 5.639932965095795e-15
  endloop
endfacet
facet normal -1.9355784770460402e-16 -3.265761084345607e-16 -1.0
  outer loop
    vertex 5.159154040341432 2.6452687549741234 5.639932965095795e-15
    vertex 7.237615009424089 3.8452687549741205 5.639932965095795e-15
    vertex 5.468845350105785 1.897607794791938 5.639932965095795e-15
  endloop
endfacet
facet normal -1.9355784770460402e-16 -3.265761084345607e-16 -1.0
  outer loop
    vertex 5.468845350105785 1.897607794791938 5.639932965095795e-15
    vertex 7.237615009424089 3.8452687549741205 5.639932965095795e-15
    vertex 5.574475288609672 1.095268754974121 5.639932965095795e-15
  endloop
endfacet
facet normal -1.9355784770460402e-16 -3.265761084345607e-16 -1.0
  outer loop
    vertex 5.574475288609672 1.095268754974121 5.639932965095795e-15
    vertex 7.237615009424089 3.8452687549741205 5.639932965095795e-15
    vertex 5.805365856305502 -4.833067270086782 5.639932965095795e-15
  endloop
endfacet
facet normal -1.9355784770460402e-16 -3.265761084345607e-16 -1.0
  outer loop
    vertex 5.805365856305502 -4.833067270086782 5.639932965095795e-15
    vertex 7.237615009424089 3.8452687549741205 5.639932965095795e-15
    vertex 7.226234781542867 -3.7689662024800556 5.639932965095795e-15
  endloop
endfacet
facet normal -1.9355784770460402e-16 -3.265761084345607e-16 -1.0
  outer loop
    vertex 7.226234781542867 -3.7689662024800556 5.639932965095795e-15
    vertex 7.237615009424089 3.8452687549741205 5.639932965095795e-15
    vertex 8.323279149990682 -2.3733755610511706 5.639932965095795e-15
  endloop
endfacet
facet normal -1.9355784770460402e-16 -3.265761084345607e-16 -1.0
  outer loop
    vertex 8.323279149990682 -2.3733755610511706 5.639932965095795e-15
    vertex 7.237615009424089 3.8452687549741205 5.639932965095795e-15
    vertex 9.06290607820791 2.7782957098010406 5.639932965095795e-15
  endloop
endfacet
facet normal -1.9355784770460402e-16 -3.265761084345607e-16 -1.0
  outer loop
    vertex 8.323279149990682 -2.3733755610511706 5.639932965095795e-15
    vertex 9.06290607820791 2.7782957098010406 5.639932965095795e-15
    vertex 9.021737200890772 -0.7414025416909161 5.639932965095795e-15
  endloop
endfacet
facet normal -1.9355784770460402e-16 -3.265761084345607e-16 -1.0
  outer loop
    vertex 9.021737200890772 -0.7414025416909161 5.639932965095795e-15
    vertex 9.06290607820791 2.7782957098010406 5.639932965095795e-15
    vertex 9.274010172330792 1.0157365912942273 5.639932965095795e-15
  endloop
endfacet
facet normal -1.9355784770460402e-16 -3.265761084345607e-16 -1.0
  outer loop
    vertex -4.072786623671425 2.931940051639163 5.639932965095795e-15
    vertex -4.11395550098856 -0.5877581998527953 5.639932965095795e-15
    vertex -4.325059595111447 1.1748009186540198 5.639932965095795e-15
  endloop
endfacet
facet normal -1.9355784770460402e-16 -3.265761084345607e-16 -1.0
  outer loop
    vertex -4.11395550098856 -0.5877581998527953 5.639932965095795e-15
    vertex -4.072786623671425 2.931940051639163 5.639932965095795e-15
    vertex -2.288664432204739 -1.6547312450258749 1.7933224349953035e-14
  endloop
endfacet
facet normal -1.9355784770460402e-16 -3.265761084345607e-16 -1.0
  outer loop
    vertex -2.288664432204739 -1.6547312450258749 1.7933224349953035e-14
    vertex -4.072786623671425 2.931940051639163 5.639932965095795e-15
    vertex -3.374328572771338 4.563913070999415 5.639932965095795e-15
  endloop
endfacet
facet normal -1.9355784770460402e-16 -3.265761084345607e-16 -1.0
  outer loop
    vertex -2.288664432204739 -1.6547312450258749 1.7933224349953035e-14
    vertex -3.374328572771338 4.563913070999415 5.639932965095795e-15
    vertex -2.2772842043235215 5.959503712428303 5.639932965095795e-15
  endloop
endfacet
facet normal -1.9355784770460402e-16 -3.265761084345607e-16 -1.0
  outer loop
    vertex -2.288664432204739 -1.6547312450258749 1.7933224349953035e-14
    vertex -2.2772842043235215 5.959503712428303 5.639932965095795e-15
    vertex -0.5198947728864374 0.2929297151563106 5.639932965095795e-15
  endloop
endfacet
facet normal -1.9355784770460402e-16 -3.265761084345607e-16 -1.0
  outer loop
    vertex -2.288664432204739 -1.6547312450258749 1.7933224349953035e-14
    vertex -0.5198947728864374 0.2929297151563106 5.639932965095795e-15
    vertex -0.21020346312208607 -0.45473124502587436 5.639932965095795e-15
  endloop
endfacet
facet normal -1.9355784770460402e-16 -3.265761084345607e-16 -1.0
  outer loop
    vertex -2.288664432204739 -1.6547312450258749 1.7933224349953035e-14
    vertex -0.21020346312208607 -0.45473124502587436 5.639932965095795e-15
    vertex 2.474475288609673 -4.404731245025876 1.7933224349953035e-14
  endloop
endfacet
facet normal -1.9355784770460402e-16 -3.265761084345607e-16 -1.0
  outer loop
    vertex -0.5198947728864374 0.2929297151563106 5.639932965095795e-15
    vertex -2.2772842043235215 5.959503712428303 5.639932965095795e-15
    vertex -0.6255247113903254 1.0952687549741253 5.639932965095795e-15
  endloop
endfacet
facet normal -1.9355784770460402e-16 -3.265761084345607e-16 -1.0
  outer loop
    vertex -0.6255247113903254 1.0952687549741253 5.639932965095795e-15
    vertex -2.2772842043235215 5.959503712428303 5.639932965095795e-15
    vertex -0.856415279086156 7.02360478003503 5.639932965095795e-15
  endloop
endfacet
facet normal -1.9355784770460402e-16 -3.265761084345607e-16 -1.0
  outer loop
    vertex 2.474475288609673 -4.404731245025876 1.7933224349953035e-14
    vertex -0.21020346312208607 -0.45473124502587436 5.639932965095795e-15
    vertex 0.28244426693137625 -1.096762266704172 5.639932965095795e-15
  endloop
endfacet
facet normal -1.9355784770460402e-16 -3.265761084345607e-16 -1.0
  outer loop
    vertex 2.474475288609673 -4.404731245025876 1.7933224349953035e-14
    vertex 0.28244426693137625 -1.096762266704172 5.639932965095795e-15
    vertex 0.9244752886096721 -1.5894099967576345 5.639932965095795e-15
  endloop
endfacet
facet normal -1.9355784770460402e-16 -3.265761084345607e-16 -1.0
  outer loop
    vertex 2.474475288609673 -4.404731245025876 1.7933224349953035e-14
    vertex 0.9244752886096721 -1.5894099967576345 5.639932965095795e-15
    vertex 1.6721362487918574 -1.8991013065219868 5.639932965095795e-15
  endloop
endfacet
facet normal -1.9355784770460402e-16 -3.265761084345607e-16 -1.0
  outer loop
    vertex 2.474475288609673 -4.404731245025876 1.7933224349953035e-14
    vertex 1.6721362487918574 -1.8991013065219868 5.639932965095795e-15
    vertex 2.474475288609671 -2.0047312450258756 5.639932965095795e-15
  endloop
endfacet
facet normal -1.9355784770460402e-16 -3.265761084345607e-16 -1.0
  outer loop
    vertex 2.474475288609673 -4.404731245025876 1.7933224349953035e-14
    vertex 2.474475288609671 -2.0047312450258756 5.639932965095795e-15
    vertex 3.276814328427487 -1.8991013065219875 5.639932965095795e-15
  endloop
endfacet
facet normal -1.9355784770460402e-16 -3.265761084345607e-16 -1.0
  outer loop
    vertex 2.474475288609673 -4.404731245025876 1.7933224349953035e-14
    vertex 3.276814328427487 -1.8991013065219875 5.639932965095795e-15
    vertex 4.15750224343659 -5.4931620346241115 5.639932965095795e-15
  endloop
endfacet
facet normal -1.9355784770460402e-16 -3.265761084345607e-16 -1.0
  outer loop
    vertex 4.15750224343659 -5.4931620346241115 5.639932965095795e-15
    vertex 3.276814328427487 -1.8991013065219875 5.639932965095795e-15
    vertex 4.024475288609672 -1.5894099967576365 5.639932965095795e-15
  endloop
endfacet
facet normal -1.9355784770460402e-16 -3.265761084345607e-16 -1.0
  outer loop
    vertex 4.15750224343659 -5.4931620346241115 5.639932965095795e-15
    vertex 4.024475288609672 -1.5894099967576365 5.639932965095795e-15
    vertex 4.666506310287969 -1.0967622667041754 5.639932965095795e-15
  endloop
endfacet
facet normal -1.9355784770460402e-16 -3.265761084345607e-16 -1.0
  outer loop
    vertex 4.15750224343659 -5.4931620346241115 5.639932965095795e-15
    vertex 4.666506310287969 -1.0967622667041754 5.639932965095795e-15
    vertex 5.805365856305502 -4.833067270086782 5.639932965095795e-15
  endloop
endfacet
facet normal -1.9355784770460402e-16 -3.265761084345607e-16 -1.0
  outer loop
    vertex 5.805365856305502 -4.833067270086782 5.639932965095795e-15
    vertex 4.666506310287969 -1.0967622667041754 5.639932965095795e-15
    vertex 5.159154040341432 -0.454731245025877 5.639932965095795e-15
  endloop
endfacet
facet normal -1.9355784770460402e-16 -3.265761084345607e-16 -1.0
  outer loop
    vertex 5.805365856305502 -4.833067270086782 5.639932965095795e-15
    vertex 5.159154040341432 -0.454731245025877 5.639932965095795e-15
    vertex 5.468845350105784 0.2929297151563076 5.639932965095795e-15
  endloop
endfacet
facet normal -1.9355784770460402e-16 -3.265761084345607e-16 -1.0
  outer loop
    vertex 5.805365856305502 -4.833067270086782 5.639932965095795e-15
    vertex 5.468845350105784 0.2929297151563076 5.639932965095795e-15
    vertex 5.574475288609672 1.095268754974121 5.639932965095795e-15
  endloop
endfacet
facet normal 0.992903669217858 0.11892141797722784 -0.0
  outer loop
    vertex 9.06290607820791 2.7782957098010406 5.639932965095795e-15
    vertex 9.274010172330792 1.0157365912942273 0.6000000000000056
    vertex 9.274010172330792 1.0157365912942273 5.639932965095795e-15
  endloop
endfacet
facet normal 0.992903669217858 0.11892141797722784 -0.0
  outer loop
    vertex 9.274010172330792 1.0157365912942273 0.6000000000000056
    vertex 9.06290607820791 2.7782957098010406 5.639932965095795e-15
    vertex 9.06290607820791 2.7782957098010406 0.6000000000000056
  endloop
endfacet
facet normal -0.9929036692178578 -0.1189214179772301 0.0
  outer loop
    vertex -4.325059595111447 1.1748009186540198 0.6000000000000056
    vertex -4.11395550098856 -0.5877581998527953 5.639932965095795e-15
    vertex -4.11395550098856 -0.5877581998527953 0.6000000000000056
  endloop
endfacet
facet normal -0.9929036692178578 -0.1189214179772301 0.0
  outer loop
    vertex -4.11395550098856 -0.5877581998527953 5.639932965095795e-15
    vertex -4.325059595111447 1.1748009186540198 0.6000000000000056
    vertex -4.325059595111447 1.1748009186540198 5.639932965095795e-15
  endloop
endfacet
facet normal -0.9898504249578112 0.14211311062263296 0.0
  outer loop
    vertex -4.072786623671425 2.931940051639163 0.6000000000000056
    vertex -4.325059595111447 1.1748009186540198 5.639932965095795e-15
    vertex -4.325059595111447 1.1748009186540198 0.6000000000000056
  endloop
endfacet
facet normal -0.9898504249578112 0.14211311062263296 0.0
  outer loop
    vertex -4.325059595111447 1.1748009186540198 5.639932965095795e-15
    vertex -4.072786623671425 2.931940051639163 0.6000000000000056
    vertex -4.072786623671425 2.931940051639163 5.639932965095795e-15
  endloop
endfacet
facet normal -0.5994408036312767 0.8004190920648315 0.0
  outer loop
    vertex -2.2772842043235215 5.959503712428303 0.6000000000000056
    vertex -0.856415279086156 7.02360478003503 5.639932965095795e-15
    vertex -2.2772842043235215 5.959503712428303 5.639932965095795e-15
  endloop
endfacet
facet normal -0.5994408036312767 0.8004190920648315 0.0
  outer loop
    vertex -0.856415279086156 7.02360478003503 5.639932965095795e-15
    vertex -2.2772842043235215 5.959503712428303 0.6000000000000056
    vertex -0.856415279086156 7.02360478003503 0.6000000000000056
  endloop
endfacet
facet normal 0.38210425047375457 -0.9224812637341457 0.05499690745254556
  outer loop
    vertex 1.620372439771356 4.28282398172805 3.6000000000000063
    vertex 0.9244752886096747 3.7799475067058843 5.639932965095795e-15
    vertex 1.6721362487918596 4.089638816470235 5.639932965095795e-15
  endloop
endfacet
facet normal 0.38210425047375457 -0.9224812637341457 0.05499690745254556
  outer loop
    vertex 0.9244752886096747 3.7799475067058843 5.639932965095795e-15
    vertex 1.620372439771356 4.28282398172805 3.6000000000000063
    vertex 0.8244752886096748 3.953152587462772 3.6000000000000063
  endloop
endfacet
facet normal 0.607840083672065 -0.792152619671357 0.05499690745254554
  outer loop
    vertex 0.8244752886096748 3.953152587462772 3.6000000000000063
    vertex 0.2824442669313773 3.287299776652422 5.639932965095795e-15
    vertex 0.9244752886096747 3.7799475067058843 5.639932965095795e-15
  endloop
endfacet
facet normal 0.607840083672065 -0.792152619671357 0.05499690745254554
  outer loop
    vertex 0.2824442669313773 3.287299776652422 5.639932965095795e-15
    vertex 0.8244752886096748 3.953152587462772 3.6000000000000063
    vertex 0.14102291069406786 3.4287211328897316 3.6000000000000063
  endloop
endfacet
facet normal -0.0 -0.0 1.0
  outer loop
    vertex -4.11395550098856 -0.5877581998527953 0.6000000000000056
    vertex -4.072786623671425 2.931940051639163 0.6000000000000056
    vertex -4.325059595111447 1.1748009186540198 0.6000000000000056
  endloop
endfacet
facet normal -0.0 -0.0 1.0
  outer loop
    vertex -4.072786623671425 2.931940051639163 0.6000000000000056
    vertex -4.11395550098856 -0.5877581998527953 0.6000000000000056
    vertex -2.288664432204739 -1.6547312450258749 0.6000000000000056
  endloop
endfacet
facet normal -0.0 -0.0 1.0
  outer loop
    vertex -4.072786623671425 2.931940051639163 0.6000000000000056
    vertex -2.288664432204739 -1.6547312450258749 0.6000000000000056
    vertex -3.374328572771338 4.563913070999415 0.6000000000000056
  endloop
endfacet
facet normal -0.0 -0.0 1.0
  outer loop
    vertex -3.374328572771338 4.563913070999415 0.6000000000000056
    vertex -2.288664432204739 -1.6547312450258749 0.6000000000000056
    vertex -2.2886644322047385 3.8452687549741245 0.6000000000000056
  endloop
endfacet
facet normal -0.0 -0.0 1.0
  outer loop
    vertex -3.374328572771338 4.563913070999415 0.6000000000000056
    vertex -2.2886644322047385 3.8452687549741245 0.6000000000000056
    vertex -2.2772842043235215 5.959503712428303 0.6000000000000056
  endloop
endfacet
facet normal -0.0 -0.0 1.0
  outer loop
    vertex -2.2772842043235215 5.959503712428303 0.6000000000000056
    vertex -2.2886644322047385 3.8452687549741245 0.6000000000000056
    vertex 2.4744752886096735 6.595268754974124 0.6000000000000056
  endloop
endfacet
facet normal -0.0 -0.0 1.0
  outer loop
    vertex -2.2772842043235215 5.959503712428303 0.6000000000000056
    vertex 2.4744752886096735 6.595268754974124 0.6000000000000056
    vertex -0.856415279086156 7.02360478003503 0.6000000000000056
  endloop
endfacet
facet normal -0.0 -0.0 1.0
  outer loop
    vertex -0.856415279086156 7.02360478003503 0.6000000000000056
    vertex 2.4744752886096735 6.595268754974124 0.6000000000000056
    vertex 0.6720786870198072 7.6358829180885 0.6000000000000056
  endloop
endfacet
facet normal 0.9898504249578113 -0.14211311062263218 0.0
  outer loop
    vertex 9.274010172330792 1.0157365912942273 5.639932965095795e-15
    vertex 9.021737200890772 -0.7414025416909161 0.6000000000000056
    vertex 9.021737200890772 -0.7414025416909161 5.639932965095795e-15
  endloop
endfacet
facet normal 0.9898504249578113 -0.14211311062263218 0.0
  outer loop
    vertex 9.021737200890772 -0.7414025416909161 0.6000000000000056
    vertex 9.274010172330792 1.0157365912942273 5.639932965095795e-15
    vertex 9.274010172330792 1.0157365912942273 0.6000000000000056
  endloop
endfacet
facet normal -0.9193405100420605 0.39346286558658145 0.0
  outer loop
    vertex -3.374328572771338 4.563913070999415 0.6000000000000056
    vertex -4.072786623671425 2.931940051639163 5.639932965095795e-15
    vertex -4.072786623671425 2.931940051639163 0.6000000000000056
  endloop
endfacet
facet normal -0.9193405100420605 0.39346286558658145 0.0
  outer loop
    vertex -4.072786623671425 2.931940051639163 5.639932965095795e-15
    vertex -3.374328572771338 4.563913070999415 0.6000000000000056
    vertex -3.374328572771338 4.563913070999415 5.639932965095795e-15
  endloop
endfacet
facet normal -0.37185164846887675 0.9282921692716034 -0.0
  outer loop
    vertex -0.856415279086156 7.02360478003503 0.6000000000000056
    vertex 0.6720786870198072 7.6358829180885 5.639932965095795e-15
    vertex -0.856415279086156 7.02360478003503 5.639932965095795e-15
  endloop
endfacet
facet normal -0.37185164846887675 0.9282921692716034 -0.0
  outer loop
    vertex 0.6720786870198072 7.6358829180885 5.639932965095795e-15
    vertex -0.856415279086156 7.02360478003503 0.6000000000000056
    vertex 0.6720786870198072 7.6358829180885 0.6000000000000056
  endloop
endfacet
facet normal 0.9899443341458202 -0.13032864406278902 0.05499690745254561
  outer loop
    vertex -0.5198947728864374 1.89760779479194 5.639932965095795e-15
    vertex -0.825524711390326 1.0952687549741256 3.6000000000000063
    vertex -0.6255247113903254 1.0952687549741253 5.639932965095795e-15
  endloop
endfacet
facet normal 0.9899443341458202 -0.13032864406278902 0.05499690745254561
  outer loop
    vertex -0.825524711390326 1.0952687549741256 3.6000000000000063
    vertex -0.5198947728864374 1.89760779479194 5.639932965095795e-15
    vertex -0.7130799381442507 1.9493716038124438 3.6000000000000063
  endloop
endfacet
facet normal 0.9899443341458202 0.1303286440627881 0.05499690745254578
  outer loop
    vertex -0.5198947728864374 0.2929297151563106 5.639932965095795e-15
    vertex -0.825524711390326 1.0952687549741256 3.6000000000000063
    vertex -0.7130799381442522 0.24116590613580752 3.6000000000000063
  endloop
endfacet
facet normal 0.9899443341458202 0.1303286440627881 0.05499690745254578
  outer loop
    vertex -0.825524711390326 1.0952687549741256 3.6000000000000063
    vertex -0.5198947728864374 0.2929297151563106 5.639932965095795e-15
    vertex -0.6255247113903254 1.0952687549741253 5.639932965095795e-15
  endloop
endfacet
facet normal 0.7921526196713564 -0.6078400836720654 0.054996907452545506
  outer loop
    vertex 0.2824442669313773 3.287299776652422 5.639932965095795e-15
    vertex -0.38340854387897305 2.745268754974125 3.6000000000000063
    vertex -0.2102034631220857 2.6452687549741247 5.639932965095795e-15
  endloop
endfacet
facet normal 0.7921526196713564 -0.6078400836720654 0.054996907452545506
  outer loop
    vertex -0.38340854387897305 2.745268754974125 3.6000000000000063
    vertex 0.2824442669313773 3.287299776652422 5.639932965095795e-15
    vertex 0.14102291069406786 3.4287211328897316 3.6000000000000063
  endloop
endfacet
facet normal -0.7861790586489704 0.6179987764889335 0.0
  outer loop
    vertex -2.2772842043235215 5.959503712428303 0.6000000000000056
    vertex -3.374328572771338 4.563913070999415 5.639932965095795e-15
    vertex -3.374328572771338 4.563913070999415 0.6000000000000056
  endloop
endfacet
facet normal -0.7861790586489704 0.6179987764889335 0.0
  outer loop
    vertex -3.374328572771338 4.563913070999415 5.639932965095795e-15
    vertex -2.2772842043235215 5.959503712428303 0.6000000000000056
    vertex -2.2772842043235215 5.959503712428303 5.639932965095795e-15
  endloop
endfacet
facet normal 0.1303286440627882 -0.9899443341458202 0.054996907452545436
  outer loop
    vertex 2.474475288609681 4.395268754974124 3.6000000000000063
    vertex 1.6721362487918596 4.089638816470235 5.639932965095795e-15
    vertex 2.4744752886096744 4.195268754974124 5.639932965095795e-15
  endloop
endfacet
facet normal 0.1303286440627882 -0.9899443341458202 0.054996907452545436
  outer loop
    vertex 1.6721362487918596 4.089638816470235 5.639932965095795e-15
    vertex 2.474475288609681 4.395268754974124 3.6000000000000063
    vertex 1.620372439771356 4.28282398172805 3.6000000000000063
  endloop
endfacet
facet normal 0.13032864406278905 0.9899443341458202 0.054996907452545526
  outer loop
    vertex 1.6203724397713548 -2.092286471779801 3.6000000000000063
    vertex 2.474475288609671 -2.0047312450258756 5.639932965095795e-15
    vertex 1.6721362487918574 -1.8991013065219868 5.639932965095795e-15
  endloop
endfacet
facet normal 0.13032864406278905 0.9899443341458202 0.054996907452545526
  outer loop
    vertex 2.474475288609671 -2.0047312450258756 5.639932965095795e-15
    vertex 1.6203724397713548 -2.092286471779801 3.6000000000000063
    vertex 2.474475288609674 -2.2047312450258754 3.6000000000000063
  endloop
endfacet
facet normal -0.9899443341458202 0.13032864406278855 0.05499690745254579
  outer loop
    vertex 5.774475288609673 1.095268754974123 3.6000000000000063
    vertex 5.468845350105784 0.2929297151563076 5.639932965095795e-15
    vertex 5.662030515363599 0.2411659061358054 3.6000000000000063
  endloop
endfacet
facet normal -0.9899443341458202 0.13032864406278855 0.05499690745254579
  outer loop
    vertex 5.468845350105784 0.2929297151563076 5.639932965095795e-15
    vertex 5.774475288609673 1.095268754974123 3.6000000000000063
    vertex 5.574475288609672 1.095268754974121 5.639932965095795e-15
  endloop
endfacet
facet normal -0.9224812637341456 -0.38210425047375507 0.05499690745254565
  outer loop
    vertex 5.662030515363599 1.9493716038124402 3.6000000000000063
    vertex 5.159154040341432 2.6452687549741234 5.639932965095795e-15
    vertex 5.468845350105785 1.897607794791938 5.639932965095795e-15
  endloop
endfacet
facet normal -0.9224812637341456 -0.38210425047375507 0.05499690745254565
  outer loop
    vertex 5.159154040341432 2.6452687549741234 5.639932965095795e-15
    vertex 5.662030515363599 1.9493716038124402 3.6000000000000063
    vertex 5.332359121098322 2.745268754974121 3.6000000000000063
  endloop
endfacet
facet normal -0.6078400836720659 -0.7921526196713563 0.05499690745254549
  outer loop
    vertex 4.807927666525283 3.428721132889727 3.6000000000000063
    vertex 4.024475288609674 3.7799475067058834 5.639932965095795e-15
    vertex 4.6665063102879705 3.2872997766524206 5.639932965095795e-15
  endloop
endfacet
facet normal -0.6078400836720659 -0.7921526196713563 0.05499690745254549
  outer loop
    vertex 4.024475288609674 3.7799475067058834 5.639932965095795e-15
    vertex 4.807927666525283 3.428721132889727 3.6000000000000063
    vertex 4.124475288609678 3.953152587462768 3.6000000000000063
  endloop
endfacet
facet normal -0.13032864406279016 -0.98994433414582 0.05499690745254549
  outer loop
    vertex 3.3285781374479977 4.282823981728047 3.6000000000000063
    vertex 2.4744752886096744 4.195268754974124 5.639932965095795e-15
    vertex 3.276814328427488 4.089638816470235 5.639932965095795e-15
  endloop
endfacet
facet normal -0.13032864406279016 -0.98994433414582 0.05499690745254549
  outer loop
    vertex 2.4744752886096744 4.195268754974124 5.639932965095795e-15
    vertex 3.3285781374479977 4.282823981728047 3.6000000000000063
    vertex 2.474475288609681 4.395268754974124 3.6000000000000063
  endloop
endfacet
facet normal -0.1303286440627884 0.9899443341458202 0.054996907452545624
  outer loop
    vertex 2.474475288609674 -2.2047312450258754 3.6000000000000063
    vertex 3.276814328427487 -1.8991013065219875 5.639932965095795e-15
    vertex 2.474475288609671 -2.0047312450258756 5.639932965095795e-15
  endloop
endfacet
facet normal -0.1303286440627884 0.9899443341458202 0.054996907452545624
  outer loop
    vertex 3.276814328427487 -1.8991013065219875 5.639932965095795e-15
    vertex 2.474475288609674 -2.2047312450258754 3.6000000000000063
    vertex 3.328578137447993 -2.092286471779801 3.6000000000000063
  endloop
endfacet
facet normal -0.7921526196713569 0.6078400836720651 0.05499690745254547
  outer loop
    vertex 5.332359121098321 -0.554731245025875 3.6000000000000063
    vertex 4.666506310287969 -1.0967622667041754 5.639932965095795e-15
    vertex 4.807927666525281 -1.2381836229414815 3.6000000000000063
  endloop
endfacet
facet normal -0.7921526196713569 0.6078400836720651 0.05499690745254547
  outer loop
    vertex 4.666506310287969 -1.0967622667041754 5.639932965095795e-15
    vertex 5.332359121098321 -0.554731245025875 3.6000000000000063
    vertex 5.159154040341432 -0.454731245025877 5.639932965095795e-15
  endloop
endfacet
facet normal -0.6078400836720652 0.7921526196713568 0.05499690745254544
  outer loop
    vertex 4.124475288609675 -1.7626150775145226 3.6000000000000063
    vertex 4.666506310287969 -1.0967622667041754 5.639932965095795e-15
    vertex 4.024475288609672 -1.5894099967576365 5.639932965095795e-15
  endloop
endfacet
facet normal -0.6078400836720652 0.7921526196713568 0.05499690745254544
  outer loop
    vertex 4.666506310287969 -1.0967622667041754 5.639932965095795e-15
    vertex 4.124475288609675 -1.7626150775145226 3.6000000000000063
    vertex 4.807927666525281 -1.2381836229414815 3.6000000000000063
  endloop
endfacet
facet normal -0.9224812637341454 0.38210425047375557 0.05499690745254559
  outer loop
    vertex 5.662030515363599 0.2411659061358054 3.6000000000000063
    vertex 5.159154040341432 -0.454731245025877 5.639932965095795e-15
    vertex 5.332359121098321 -0.554731245025875 3.6000000000000063
  endloop
endfacet
facet normal -0.9224812637341454 0.38210425047375557 0.05499690745254559
  outer loop
    vertex 5.159154040341432 -0.454731245025877 5.639932965095795e-15
    vertex 5.662030515363599 0.2411659061358054 3.6000000000000063
    vertex 5.468845350105784 0.2929297151563076 5.639932965095795e-15
  endloop
endfacet
facet normal -0.38210425047375485 0.9224812637341456 0.054996907452545526
  outer loop
    vertex 3.328578137447993 -2.092286471779801 3.6000000000000063
    vertex 4.024475288609672 -1.5894099967576365 5.639932965095795e-15
    vertex 3.276814328427487 -1.8991013065219875 5.639932965095795e-15
  endloop
endfacet
facet normal -0.38210425047375485 0.9224812637341456 0.054996907452545526
  outer loop
    vertex 4.024475288609672 -1.5894099967576365 5.639932965095795e-15
    vertex 3.328578137447993 -2.092286471779801 3.6000000000000063
    vertex 4.124475288609675 -1.7626150775145226 3.6000000000000063
  endloop
endfacet
facet normal -0.9899443341458202 -0.1303286440627878 0.05499690745254575
  outer loop
    vertex 5.774475288609673 1.095268754974123 3.6000000000000063
    vertex 5.468845350105785 1.897607794791938 5.639932965095795e-15
    vertex 5.574475288609672 1.095268754974121 5.639932965095795e-15
  endloop
endfacet
facet normal -0.9899443341458202 -0.1303286440627878 0.05499690745254575
  outer loop
    vertex 5.468845350105785 1.897607794791938 5.639932965095795e-15
    vertex 5.774475288609673 1.095268754974123 3.6000000000000063
    vertex 5.662030515363599 1.9493716038124402 3.6000000000000063
  endloop
endfacet
facet normal -0.38210425047375624 -0.922481263734145 0.05499690745254539
  outer loop
    vertex 4.124475288609678 3.953152587462768 3.6000000000000063
    vertex 3.276814328427488 4.089638816470235 5.639932965095795e-15
    vertex 4.024475288609674 3.7799475067058834 5.639932965095795e-15
  endloop
endfacet
facet normal -0.38210425047375624 -0.922481263734145 0.05499690745254539
  outer loop
    vertex 3.276814328427488 4.089638816470235 5.639932965095795e-15
    vertex 4.124475288609678 3.953152587462768 3.6000000000000063
    vertex 3.3285781374479977 4.282823981728047 3.6000000000000063
  endloop
endfacet
facet normal -0.7921526196713573 -0.6078400836720647 0.054996907452545714
  outer loop
    vertex 5.332359121098322 2.745268754974121 3.6000000000000063
    vertex 4.6665063102879705 3.2872997766524206 5.639932965095795e-15
    vertex 5.159154040341432 2.6452687549741234 5.639932965095795e-15
  endloop
endfacet
facet normal -0.7921526196713573 -0.6078400836720647 0.054996907452545714
  outer loop
    vertex 4.6665063102879705 3.2872997766524206 5.639932965095795e-15
    vertex 5.332359121098322 2.745268754974121 3.6000000000000063
    vertex 4.807927666525283 3.428721132889727 3.6000000000000063
  endloop
endfacet
facet normal -0.5046542178165517 -0.8633215625941265 -7.918779857676017e-17
  outer loop
    vertex -2.288664432204739 -1.6547312450258749 1.7933224349953035e-14
    vertex -4.11395550098856 -0.5877581998527953 0.6000000000000056
    vertex -4.11395550098856 -0.5877581998527953 5.639932965095795e-15
  endloop
endfacet
facet normal -0.5046542178165517 -0.8633215625941265 -7.918779857676017e-17
  outer loop
    vertex -4.11395550098856 -0.5877581998527953 0.6000000000000056
    vertex -2.288664432204739 -1.6547312450258749 1.7933224349953035e-14
    vertex -2.288664432204739 -1.6547312450258749 0.6000000000000056
  endloop
endfacet
facet normal 0.5000000000000002 0.8660254037844386 0.0
  outer loop
    vertex 2.4744752886096735 6.595268754974124 0.6000000000000056
    vertex 7.237615009424089 3.8452687549741205 5.639932965095795e-15
    vertex 2.4744752886096735 6.595268754974124 5.639932965095795e-15
  endloop
endfacet
facet normal 0.5000000000000002 0.8660254037844386 0.0
  outer loop
    vertex 7.237615009424089 3.8452687549741205 5.639932965095795e-15
    vertex 2.4744752886096735 6.595268754974124 0.6000000000000056
    vertex 7.237615009424089 3.8452687549741205 0.6000000000000056
  endloop
endfacet
facet normal 0.5000000000000002 0.8660254037844386 0.0
  outer loop
    vertex 7.237615009424089 3.8452687549741205 0.6000000000000056
    vertex 2.4744752886096735 6.595268754974124 0.6000000000000056
    vertex 2.4744752886096735 6.595268754974124 3.6000000000000063
  endloop
endfacet
facet normal 0.5000000000000002 0.8660254037844386 0.0
  outer loop
    vertex 7.237615009424089 3.8452687549741205 0.6000000000000056
    vertex 2.4744752886096735 6.595268754974124 3.6000000000000063
    vertex 7.237615009424089 3.8452687549741205 3.6000000000000063
  endloop
endfacet
facet normal -0.0 -0.0 1.0
  outer loop
    vertex 4.15750224343659 -5.4931620346241115 0.6000000000000056
    vertex 7.2376150094240845 -1.6547312450258784 0.6000000000000056
    vertex 2.474475288609673 -4.404731245025876 0.6000000000000056
  endloop
endfacet
facet normal -0.0 -0.0 1.0
  outer loop
    vertex 7.2376150094240845 -1.6547312450258784 0.6000000000000056
    vertex 4.15750224343659 -5.4931620346241115 0.6000000000000056
    vertex 5.805365856305502 -4.833067270086782 0.6000000000000056
  endloop
endfacet
facet normal -0.0 -0.0 1.0
  outer loop
    vertex 7.2376150094240845 -1.6547312450258784 0.6000000000000056
    vertex 5.805365856305502 -4.833067270086782 0.6000000000000056
    vertex 7.226234781542867 -3.7689662024800556 0.6000000000000056
  endloop
endfacet
facet normal -0.0 -0.0 1.0
  outer loop
    vertex 7.2376150094240845 -1.6547312450258784 0.6000000000000056
    vertex 7.226234781542867 -3.7689662024800556 0.6000000000000056
    vertex 8.323279149990682 -2.3733755610511706 0.6000000000000056
  endloop
endfacet
facet normal -0.0 -0.0 1.0
  outer loop
    vertex 7.2376150094240845 -1.6547312450258784 0.6000000000000056
    vertex 8.323279149990682 -2.3733755610511706 0.6000000000000056
    vertex 7.237615009424089 3.8452687549741205 0.6000000000000056
  endloop
endfacet
facet normal -0.0 -0.0 1.0
  outer loop
    vertex 7.237615009424089 3.8452687549741205 0.6000000000000056
    vertex 8.323279149990682 -2.3733755610511706 0.6000000000000056
    vertex 9.06290607820791 2.7782957098010406 0.6000000000000056
  endloop
endfacet
facet normal -0.0 -0.0 1.0
  outer loop
    vertex 9.06290607820791 2.7782957098010406 0.6000000000000056
    vertex 8.323279149990682 -2.3733755610511706 0.6000000000000056
    vertex 9.021737200890772 -0.7414025416909161 0.6000000000000056
  endloop
endfacet
facet normal -0.0 -0.0 1.0
  outer loop
    vertex 9.06290607820791 2.7782957098010406 0.6000000000000056
    vertex 9.021737200890772 -0.7414025416909161 0.6000000000000056
    vertex 9.274010172330792 1.0157365912942273 0.6000000000000056
  endloop
endfacet
facet normal -0.5000000000000002 -0.8660254037844386 -0.0
  outer loop
    vertex 2.474475288609673 -4.404731245025876 0.6000000000000056
    vertex -2.288664432204739 -1.6547312450258749 1.7933224349953035e-14
    vertex 2.474475288609673 -4.404731245025876 1.7933224349953035e-14
  endloop
endfacet
facet normal -0.5000000000000002 -0.8660254037844386 -0.0
  outer loop
    vertex -2.288664432204739 -1.6547312450258749 1.7933224349953035e-14
    vertex 2.474475288609673 -4.404731245025876 0.6000000000000056
    vertex -2.288664432204739 -1.6547312450258749 0.6000000000000056
  endloop
endfacet
facet normal -0.5000000000000002 -0.8660254037844386 -0.0
  outer loop
    vertex -2.288664432204739 -1.6547312450258749 0.6000000000000056
    vertex 2.474475288609673 -4.404731245025876 0.6000000000000056
    vertex 2.474475288609673 -4.404731245025876 3.6000000000000063
  endloop
endfacet
facet normal -0.5000000000000002 -0.8660254037844386 -0.0
  outer loop
    vertex -2.288664432204739 -1.6547312450258749 0.6000000000000056
    vertex 2.474475288609673 -4.404731245025876 3.6000000000000063
    vertex -2.288664432204739 -1.6547312450258749 3.6000000000000063
  endloop
endfacet
facet normal -0.0 -0.0 1.0
  outer loop
    vertex -2.288664432204739 -1.6547312450258749 3.6000000000000063
    vertex -0.3834085438789741 -0.5547312450258745 3.6000000000000063
    vertex -2.2886644322047385 3.8452687549741245 3.6000000000000063
  endloop
endfacet
facet normal -0.0 -0.0 1.0
  outer loop
    vertex -0.3834085438789741 -0.5547312450258745 3.6000000000000063
    vertex -2.288664432204739 -1.6547312450258749 3.6000000000000063
    vertex 2.474475288609673 -4.404731245025876 3.6000000000000063
  endloop
endfacet
facet normal -0.0 -0.0 1.0
  outer loop
    vertex -2.2886644322047385 3.8452687549741245 3.6000000000000063
    vertex -0.3834085438789741 -0.5547312450258745 3.6000000000000063
    vertex -0.7130799381442522 0.24116590613580752 3.6000000000000063
  endloop
endfacet
facet normal -0.0 -0.0 1.0
  outer loop
    vertex -2.2886644322047385 3.8452687549741245 3.6000000000000063
    vertex -0.7130799381442522 0.24116590613580752 3.6000000000000063
    vertex -0.825524711390326 1.0952687549741256 3.6000000000000063
  endloop
endfacet
facet normal -0.0 -0.0 1.0
  outer loop
    vertex -0.3834085438789741 -0.5547312450258745 3.6000000000000063
    vertex 2.474475288609673 -4.404731245025876 3.6000000000000063
    vertex 0.1410229106940661 -1.2381836229414818 3.6000000000000063
  endloop
endfacet
facet normal -0.0 -0.0 1.0
  outer loop
    vertex 0.1410229106940661 -1.2381836229414818 3.6000000000000063
    vertex 2.474475288609673 -4.404731245025876 3.6000000000000063
    vertex 0.8244752886096733 -1.7626150775145228 3.6000000000000063
  endloop
endfacet
facet normal -0.0 -0.0 1.0
  outer loop
    vertex 0.8244752886096733 -1.7626150775145228 3.6000000000000063
    vertex 2.474475288609673 -4.404731245025876 3.6000000000000063
    vertex 1.6203724397713548 -2.092286471779801 3.6000000000000063
  endloop
endfacet
facet normal -0.0 -0.0 1.0
  outer loop
    vertex 1.6203724397713548 -2.092286471779801 3.6000000000000063
    vertex 2.474475288609673 -4.404731245025876 3.6000000000000063
    vertex 2.474475288609674 -2.2047312450258754 3.6000000000000063
  endloop
endfacet
facet normal -0.0 -0.0 1.0
  outer loop
    vertex 2.474475288609674 -2.2047312450258754 3.6000000000000063
    vertex 2.474475288609673 -4.404731245025876 3.6000000000000063
    vertex 7.2376150094240845 -1.6547312450258784 3.6000000000000063
  endloop
endfacet
facet normal -0.0 -0.0 1.0
  outer loop
    vertex 2.474475288609674 -2.2047312450258754 3.6000000000000063
    vertex 7.2376150094240845 -1.6547312450258784 3.6000000000000063
    vertex 3.328578137447993 -2.092286471779801 3.6000000000000063
  endloop
endfacet
facet normal -0.0 -0.0 1.0
  outer loop
    vertex 3.328578137447993 -2.092286471779801 3.6000000000000063
    vertex 7.2376150094240845 -1.6547312450258784 3.6000000000000063
    vertex 4.124475288609675 -1.7626150775145226 3.6000000000000063
  endloop
endfacet
facet normal -0.0 -0.0 1.0
  outer loop
    vertex 4.124475288609675 -1.7626150775145226 3.6000000000000063
    vertex 7.2376150094240845 -1.6547312450258784 3.6000000000000063
    vertex 4.807927666525281 -1.2381836229414815 3.6000000000000063
  endloop
endfacet
facet normal -0.0 -0.0 1.0
  outer loop
    vertex 4.807927666525281 -1.2381836229414815 3.6000000000000063
    vertex 7.2376150094240845 -1.6547312450258784 3.6000000000000063
    vertex 5.332359121098321 -0.554731245025875 3.6000000000000063
  endloop
endfacet
facet normal -0.0 -0.0 1.0
  outer loop
    vertex 5.332359121098321 -0.554731245025875 3.6000000000000063
    vertex 7.2376150094240845 -1.6547312450258784 3.6000000000000063
    vertex 5.662030515363599 0.2411659061358054 3.6000000000000063
  endloop
endfacet
facet normal -0.0 -0.0 1.0
  outer loop
    vertex 5.662030515363599 0.2411659061358054 3.6000000000000063
    vertex 7.2376150094240845 -1.6547312450258784 3.6000000000000063
    vertex 5.774475288609673 1.095268754974123 3.6000000000000063
  endloop
endfacet
facet normal -0.0 -0.0 1.0
  outer loop
    vertex -2.2886644322047385 3.8452687549741245 3.6000000000000063
    vertex -0.38340854387897305 2.745268754974125 3.6000000000000063
    vertex 2.4744752886096735 6.595268754974124 3.6000000000000063
  endloop
endfacet
facet normal -0.0 -0.0 1.0
  outer loop
    vertex -0.38340854387897305 2.745268754974125 3.6000000000000063
    vertex -2.2886644322047385 3.8452687549741245 3.6000000000000063
    vertex -0.7130799381442507 1.9493716038124438 3.6000000000000063
  endloop
endfacet
facet normal -0.0 -0.0 1.0
  outer loop
    vertex -0.7130799381442507 1.9493716038124438 3.6000000000000063
    vertex -2.2886644322047385 3.8452687549741245 3.6000000000000063
    vertex -0.825524711390326 1.0952687549741256 3.6000000000000063
  endloop
endfacet
facet normal -0.0 -0.0 1.0
  outer loop
    vertex 2.4744752886096735 6.595268754974124 3.6000000000000063
    vertex -0.38340854387897305 2.745268754974125 3.6000000000000063
    vertex 0.14102291069406786 3.4287211328897316 3.6000000000000063
  endloop
endfacet
facet normal -0.0 -0.0 1.0
  outer loop
    vertex 2.4744752886096735 6.595268754974124 3.6000000000000063
    vertex 0.14102291069406786 3.4287211328897316 3.6000000000000063
    vertex 0.8244752886096748 3.953152587462772 3.6000000000000063
  endloop
endfacet
facet normal -0.0 -0.0 1.0
  outer loop
    vertex 2.4744752886096735 6.595268754974124 3.6000000000000063
    vertex 0.8244752886096748 3.953152587462772 3.6000000000000063
    vertex 1.620372439771356 4.28282398172805 3.6000000000000063
  endloop
endfacet
facet normal -0.0 -0.0 1.0
  outer loop
    vertex 2.4744752886096735 6.595268754974124 3.6000000000000063
    vertex 1.620372439771356 4.28282398172805 3.6000000000000063
    vertex 2.474475288609681 4.395268754974124 3.6000000000000063
  endloop
endfacet
facet normal -0.0 -0.0 1.0
  outer loop
    vertex 2.4744752886096735 6.595268754974124 3.6000000000000063
    vertex 2.474475288609681 4.395268754974124 3.6000000000000063
    vertex 7.237615009424089 3.8452687549741205 3.6000000000000063
  endloop
endfacet
facet normal -0.0 -0.0 1.0
  outer loop
    vertex 7.237615009424089 3.8452687549741205 3.6000000000000063
    vertex 2.474475288609681 4.395268754974124 3.6000000000000063
    vertex 3.3285781374479977 4.282823981728047 3.6000000000000063
  endloop
endfacet
facet normal -0.0 -0.0 1.0
  outer loop
    vertex 7.237615009424089 3.8452687549741205 3.6000000000000063
    vertex 3.3285781374479977 4.282823981728047 3.6000000000000063
    vertex 4.124475288609678 3.953152587462768 3.6000000000000063
  endloop
endfacet
facet normal -0.0 -0.0 1.0
  outer loop
    vertex 7.237615009424089 3.8452687549741205 3.6000000000000063
    vertex 4.124475288609678 3.953152587462768 3.6000000000000063
    vertex 4.807927666525283 3.428721132889727 3.6000000000000063
  endloop
endfacet
facet normal -0.0 -0.0 1.0
  outer loop
    vertex 7.237615009424089 3.8452687549741205 3.6000000000000063
    vertex 4.807927666525283 3.428721132889727 3.6000000000000063
    vertex 5.332359121098322 2.745268754974121 3.6000000000000063
  endloop
endfacet
facet normal -0.0 -0.0 1.0
  outer loop
    vertex 7.237615009424089 3.8452687549741205 3.6000000000000063
    vertex 5.332359121098322 2.745268754974121 3.6000000000000063
    vertex 5.662030515363599 1.9493716038124402 3.6000000000000063
  endloop
endfacet
facet normal -0.0 -0.0 1.0
  outer loop
    vertex 7.237615009424089 3.8452687549741205 3.6000000000000063
    vertex 5.662030515363599 1.9493716038124402 3.6000000000000063
    vertex 5.774475288609673 1.095268754974123 3.6000000000000063
  endloop
endfacet
facet normal -0.0 -0.0 1.0
  outer loop
    vertex 7.237615009424089 3.8452687549741205 3.6000000000000063
    vertex 5.774475288609673 1.095268754974123 3.6000000000000063
    vertex 7.2376150094240845 -1.6547312450258784 3.6000000000000063
  endloop
endfacet
facet normal -1.0 1.2818029466126807e-16 0.0
  outer loop
    vertex -2.2886644322047385 3.8452687549741245 3.6000000000000063
    vertex -2.288664432204739 -1.6547312450258749 0.6000000000000056
    vertex -2.288664432204739 -1.6547312450258749 3.6000000000000063
  endloop
endfacet
facet normal -1.0 1.2818029466126807e-16 0.0
  outer loop
    vertex -2.288664432204739 -1.6547312450258749 0.6000000000000056
    vertex -2.2886644322047385 3.8452687549741245 3.6000000000000063
    vertex -2.2886644322047385 3.8452687549741245 0.6000000000000056
  endloop
endfacet
facet normal 0.4999999999999998 -0.8660254037844389 0.0
  outer loop
    vertex 7.2376150094240845 -1.6547312450258784 3.6000000000000063
    vertex 2.474475288609673 -4.404731245025876 0.6000000000000056
    vertex 7.2376150094240845 -1.6547312450258784 0.6000000000000056
  endloop
endfacet
facet normal 0.4999999999999998 -0.8660254037844389 0.0
  outer loop
    vertex 2.474475288609673 -4.404731245025876 0.6000000000000056
    vertex 7.2376150094240845 -1.6547312450258784 3.6000000000000063
    vertex 2.474475288609673 -4.404731245025876 3.6000000000000063
  endloop
endfacet
facet normal -0.5430449474582698 -0.839703629288361 1.7985837963102056e-17
  outer loop
    vertex 4.15750224343659 -5.4931620346241115 0.6000000000000056
    vertex 2.474475288609673 -4.404731245025876 1.7933224349953035e-14
    vertex 4.15750224343659 -5.4931620346241115 5.639932965095795e-15
  endloop
endfacet
facet normal -0.5430449474582698 -0.839703629288361 1.7985837963102056e-17
  outer loop
    vertex 2.474475288609673 -4.404731245025876 1.7933224349953035e-14
    vertex 4.15750224343659 -5.4931620346241115 0.6000000000000056
    vertex 2.474475288609673 -4.404731245025876 0.6000000000000056
  endloop
endfacet
facet normal 1.0 -7.690817679676086e-16 0.0
  outer loop
    vertex 7.237615009424089 3.8452687549741205 0.6000000000000056
    vertex 7.2376150094240845 -1.6547312450258784 3.6000000000000063
    vertex 7.2376150094240845 -1.6547312450258784 0.6000000000000056
  endloop
endfacet
facet normal 1.0 -7.690817679676086e-16 0.0
  outer loop
    vertex 7.2376150094240845 -1.6547312450258784 3.6000000000000063
    vertex 7.237615009424089 3.8452687549741205 0.6000000000000056
    vertex 7.237615009424089 3.8452687549741205 3.6000000000000063
  endloop
endfacet
facet normal 0.5000000000000001 0.8660254037844387 -0.0
  outer loop
    vertex 0.6720786870198072 7.6358829180885 0.6000000000000056
    vertex 2.4744752886096735 6.595268754974124 5.639932965095795e-15
    vertex 0.6720786870198072 7.6358829180885 5.639932965095795e-15
  endloop
endfacet
facet normal 0.5000000000000001 0.8660254037844387 -0.0
  outer loop
    vertex 2.4744752886096735 6.595268754974124 5.639932965095795e-15
    vertex 0.6720786870198072 7.6358829180885 0.6000000000000056
    vertex 2.4744752886096735 6.595268754974124 0.6000000000000056
  endloop
endfacet
facet normal 0.5046542178165518 0.8633215625941265 -0.0
  outer loop
    vertex 7.237615009424089 3.8452687549741205 0.6000000000000056
    vertex 9.06290607820791 2.7782957098010406 5.639932965095795e-15
    vertex 7.237615009424089 3.8452687549741205 5.639932965095795e-15
  endloop
endfacet
facet normal 0.5046542178165518 0.8633215625941265 -0.0
  outer loop
    vertex 9.06290607820791 2.7782957098010406 5.639932965095795e-15
    vertex 7.237615009424089 3.8452687549741205 0.6000000000000056
    vertex 9.06290607820791 2.7782957098010406 0.6000000000000056
  endloop
endfacet
facet normal -0.5 0.8660254037844387 0.0
  outer loop
    vertex -2.2886644322047385 3.8452687549741245 3.6000000000000063
    vertex 2.4744752886096735 6.595268754974124 0.6000000000000056
    vertex -2.2886644322047385 3.8452687549741245 0.6000000000000056
  endloop
endfacet
facet normal -0.5 0.8660254037844387 0.0
  outer loop
    vertex 2.4744752886096735 6.595268754974124 0.6000000000000056
    vertex -2.2886644322047385 3.8452687549741245 3.6000000000000063
    vertex 2.4744752886096735 6.595268754974124 3.6000000000000063
  endloop
endfacet
endsolid plugNut
